REM DIRINDEX 1\2,1\3,1\4
REM DIRNAME cjc151,folder01,folder02,folder03
TITLE ""
FILE "052 052_Lesson 2_TOEFL_3900.mp3" MP3
  TRACK 01 AUDIO
    TITLE "4:cjc151_2233"
    INDEX 01 00:00:00
  TRACK 02 AUDIO
    TITLE "0:"
    INDEX 01 00:01:46
  TRACK 03 AUDIO
    TITLE "2:cjc151_2234"
    INDEX 01 00:02:26
  TRACK 04 AUDIO
    TITLE "0:"
    INDEX 01 00:03:39
  TRACK 05 AUDIO
    TITLE "3:cjc151_2235"
    INDEX 01 00:05:18
  TRACK 06 AUDIO
    TITLE "0:"
    INDEX 01 00:08:52
  TRACK 07 AUDIO
    TITLE "2:cjc151_2236"
    INDEX 01 00:10:31
  TRACK 08 AUDIO
    TITLE "0:"
    INDEX 01 00:11:33
  TRACK 09 AUDIO
    TITLE "3:cjc151_2237"
    INDEX 01 00:13:26
  TRACK 10 AUDIO
    TITLE "0:"
    INDEX 01 00:16:08
  TRACK 11 AUDIO
    TITLE "2:cjc151_2238"
    INDEX 01 00:17:61
  TRACK 12 AUDIO
    TITLE "0:"
    INDEX 01 00:19:01
  TRACK 13 AUDIO
    TITLE "3:cjc151_2239"
    INDEX 01 00:20:57
  TRACK 14 AUDIO
    TITLE "0:"
    INDEX 01 00:24:25
  TRACK 15 AUDIO
    TITLE "2:cjc151_2240"
    INDEX 01 00:26:03
  TRACK 16 AUDIO
    TITLE "0:"
    INDEX 01 00:27:06
  TRACK 17 AUDIO
    TITLE "3:cjc151_2241"
    INDEX 01 00:28:59
  TRACK 18 AUDIO
    TITLE "0:"
    INDEX 01 00:33:73
  TRACK 19 AUDIO
    TITLE "2:cjc151_2242"
    INDEX 01 00:35:51
  TRACK 20 AUDIO
    TITLE "0:"
    INDEX 01 00:37:12
  TRACK 21 AUDIO
    TITLE "3:cjc151_2243"
    INDEX 01 00:38:65
  TRACK 22 AUDIO
    TITLE "0:"
    INDEX 01 00:42:66
  TRACK 23 AUDIO
    TITLE "2:cjc151_2244"
    INDEX 01 00:44:46
  TRACK 24 AUDIO
    TITLE "0:"
    INDEX 01 00:45:43
  TRACK 25 AUDIO
    TITLE "3:cjc151_2245"
    INDEX 01 00:47:21
  TRACK 26 AUDIO
    TITLE "0:"
    INDEX 01 00:51:60
  TRACK 27 AUDIO
    TITLE "2:cjc151_2246"
    INDEX 01 00:53:45
  TRACK 28 AUDIO
    TITLE "0:"
    INDEX 01 00:54:38
  TRACK 29 AUDIO
    TITLE "3:cjc151_2247"
    INDEX 01 00:56:31
  TRACK 30 AUDIO
    TITLE "0:"
    INDEX 01 01:00:06
  TRACK 31 AUDIO
    TITLE "2:cjc151_2248"
    INDEX 01 01:01:60
  TRACK 32 AUDIO
    TITLE "0:"
    INDEX 01 01:02:59
  TRACK 33 AUDIO
    TITLE "3:cjc151_2249"
    INDEX 01 01:04:39
  TRACK 34 AUDIO
    TITLE "0:"
    INDEX 01 01:07:31
  TRACK 35 AUDIO
    TITLE "2:cjc151_2250"
    INDEX 01 01:09:09
  TRACK 36 AUDIO
    TITLE "0:"
    INDEX 01 01:11:02
  TRACK 37 AUDIO
    TITLE "3:cjc151_2251"
    INDEX 01 01:12:58
  TRACK 38 AUDIO
    TITLE "0:"
    INDEX 01 01:17:59
  TRACK 39 AUDIO
    TITLE "2:cjc151_2252"
    INDEX 01 01:19:40
  TRACK 40 AUDIO
    TITLE "0:"
    INDEX 01 01:20:65
  TRACK 41 AUDIO
    TITLE "3:cjc151_2253"
    INDEX 01 01:22:41
  TRACK 42 AUDIO
    TITLE "0:"
    INDEX 01 01:26:52
  TRACK 43 AUDIO
    TITLE "2:cjc151_2254"
    INDEX 01 01:28:31
  TRACK 44 AUDIO
    TITLE "0:"
    INDEX 01 01:29:33
  TRACK 45 AUDIO
    TITLE "3:cjc151_2255"
    INDEX 01 01:31:04
  TRACK 46 AUDIO
    TITLE "0:"
    INDEX 01 01:35:45
  TRACK 47 AUDIO
    TITLE "2:cjc151_2256"
    INDEX 01 01:37:21
  TRACK 48 AUDIO
    TITLE "0:"
    INDEX 01 01:38:36
  TRACK 49 AUDIO
    TITLE "3:cjc151_2257"
    INDEX 01 01:40:09
  TRACK 50 AUDIO
    TITLE "0:"
    INDEX 01 01:43:54
  TRACK 51 AUDIO
    TITLE "2:cjc151_2258"
    INDEX 01 01:45:34
  TRACK 52 AUDIO
    TITLE "0:"
    INDEX 01 01:46:33
  TRACK 53 AUDIO
    TITLE "3:cjc151_2259"
    INDEX 01 01:48:12
  TRACK 54 AUDIO
    TITLE "0:"
    INDEX 01 01:51:58
  TRACK 55 AUDIO
    TITLE "2:cjc151_2260"
    INDEX 01 01:53:35
  TRACK 56 AUDIO
    TITLE "0:"
    INDEX 01 01:54:41
  TRACK 57 AUDIO
    TITLE "3:cjc151_2261"
    INDEX 01 01:56:18
  TRACK 58 AUDIO
    TITLE "0:"
    INDEX 01 02:00:14
  TRACK 59 AUDIO
    TITLE "2:cjc151_2262"
    INDEX 01 02:01:68
  TRACK 60 AUDIO
    TITLE "0:"
    INDEX 01 02:02:69
  TRACK 61 AUDIO
    TITLE "3:cjc151_2263"
    INDEX 01 02:04:49
  TRACK 62 AUDIO
    TITLE "0:"
    INDEX 01 02:08:25
  TRACK 63 AUDIO
    TITLE "2:cjc151_2264"
    INDEX 01 02:10:04
  TRACK 64 AUDIO
    TITLE "0:"
    INDEX 01 02:11:27
  TRACK 65 AUDIO
    TITLE "3:cjc151_2265"
    INDEX 01 02:13:03
  TRACK 66 AUDIO
    TITLE "0:"
    INDEX 01 02:17:06
  TRACK 67 AUDIO
    TITLE "2:cjc151_2266"
    INDEX 01 02:18:59
  TRACK 68 AUDIO
    TITLE "0:"
    INDEX 01 02:19:62
  TRACK 69 AUDIO
    TITLE "3:cjc151_2267"
    INDEX 01 02:21:35
  TRACK 70 AUDIO
    TITLE "0:"
    INDEX 01 02:25:35
  TRACK 71 AUDIO
    TITLE "2:cjc151_2268"
    INDEX 01 02:27:13
  TRACK 72 AUDIO
    TITLE "0:"
    INDEX 01 02:28:14
  TRACK 73 AUDIO
    TITLE "3:cjc151_2269"
    INDEX 01 02:29:66
  TRACK 74 AUDIO
    TITLE "0:"
    INDEX 01 02:34:18
  TRACK 75 AUDIO
    TITLE "2:cjc151_2270"
    INDEX 01 02:36:02
  TRACK 76 AUDIO
    TITLE "0:"
    INDEX 01 02:37:03
  TRACK 77 AUDIO
    TITLE "3:cjc151_2271"
    INDEX 01 02:38:55
  TRACK 78 AUDIO
    TITLE "0:"
    INDEX 01 02:42:42
  TRACK 79 AUDIO
    TITLE "2:cjc151_2272"
    INDEX 01 02:44:19
  TRACK 80 AUDIO
    TITLE "0:"
    INDEX 01 02:45:22
  TRACK 81 AUDIO
    TITLE "3:cjc151_2273"
    INDEX 01 02:47:02
  TRACK 82 AUDIO
    TITLE "0:"
    INDEX 01 02:50:25
  TRACK 83 AUDIO
    TITLE "2:cjc151_2274"
    INDEX 01 02:52:09
  TRACK 84 AUDIO
    TITLE "0:"
    INDEX 01 02:53:22
  TRACK 85 AUDIO
    TITLE "3:cjc151_2275"
    INDEX 01 02:55:03
  TRACK 86 AUDIO
    TITLE "0:"
    INDEX 01 02:59:26
  TRACK 87 AUDIO
    TITLE "2:cjc151_2276"
    INDEX 01 03:01:08
  TRACK 88 AUDIO
    TITLE "0:"
    INDEX 01 03:02:32
  TRACK 89 AUDIO
    TITLE "3:cjc151_2277"
    INDEX 01 03:04:06
  TRACK 90 AUDIO
    TITLE "0:"
    INDEX 01 03:08:12
